<svg xmlns="http://www.w3.org/2000/svg" version="1.1" xmlns:xlink="http://www.w3.org/1999/xlink" width="390.68" height="390.68"><svg id="SvgjsSvg1335" xmlns="http://www.w3.org/2000/svg" viewBox="0 0 390.68 390.68"><path d="M136.49,185.49c-9.31,0-17.81-2.37-25.48-7.11-7.68-4.74-13.84-11.04-18.5-18.88-4.66-7.85-6.99-16.51-6.99-26l.26-82.01c0-9.48,2.28-18.11,6.86-25.87,4.57-7.76,10.74-13.97,18.5-18.63,7.76-4.66,16.21-6.98,25.35-6.98s17.76,2.33,25.35,6.98c7.59,4.66,13.67,10.87,18.24,18.63,4.57,7.76,6.86,16.39,6.86,25.87l.26,82.01c0,9.49-2.29,18.15-6.86,26-4.57,7.85-10.7,14.14-18.37,18.88-7.68,4.74-16.17,7.11-25.48,7.11ZM136.49,154.18c5.17,0,9.7-2.11,13.58-6.34,3.88-4.22,5.82-9.01,5.82-14.36l-.26-82.01c0-5.69-1.81-10.52-5.43-14.49-3.62-3.97-8.19-5.95-13.71-5.95s-9.92,1.94-13.71,5.82c-3.79,3.88-5.69,8.76-5.69,14.62v82.01c0,5.69,1.9,10.57,5.69,14.62,3.79,4.05,8.36,6.08,13.71,6.08Z" fill="#1d1d1b"></path><path d="M207.89,182.9c-.69,0-1.04-.43-1.04-1.29l.26-177.47c0-.86.43-1.29,1.29-1.29h28.72c.86,0,1.29.43,1.29,1.29l-.26,146.94h53.29c.86,0,1.29.43,1.29,1.29v29.23c0,.86-.43,1.29-1.29,1.29h-83.56Z" fill="#1d1d1b"></path><path d="M262.38,127.98c-.87,0-1.29-.26-1.29-.79l.26-75.53c0-.42.34-.63,1.04-.63h28.97c.69,0,1.03.21,1.03.63l.26,75.53c0,.53-.35.79-1.04.79h-29.23Z" fill="#1d71b8"></path><path d="M136.49,390.68c-9.31,0-17.81-2.37-25.48-7.11-7.68-4.74-13.84-11.04-18.5-18.88-4.66-7.85-6.99-16.51-6.99-26l.26-82.01c0-9.48,2.28-18.11,6.86-25.87,4.57-7.76,10.74-13.97,18.5-18.63,7.76-4.66,16.21-6.98,25.35-6.98s17.76,2.33,25.35,6.98c7.59,4.66,13.67,10.87,18.24,18.63,4.57,7.76,6.86,16.39,6.86,25.87l.26,82.01c0,9.49-2.29,18.15-6.86,26-4.57,7.85-10.7,14.14-18.37,18.88-7.68,4.74-16.17,7.11-25.48,7.11ZM136.49,359.38c5.17,0,9.7-2.11,13.58-6.34,3.88-4.22,5.82-9.01,5.82-14.36l-.26-82.01c0-5.69-1.81-10.52-5.43-14.49-3.62-3.97-8.19-5.95-13.71-5.95s-9.92,1.94-13.71,5.82c-3.79,3.88-5.69,8.76-5.69,14.62v82.01c0,5.69,1.9,10.57,5.69,14.62,3.79,4.05,8.36,6.08,13.71,6.08Z" fill="#1d1d1b"></path><path d="M254.45,390.68c-9.49,0-18.07-2.37-25.74-7.11-7.68-4.74-13.76-11.08-18.24-19.01-4.49-7.93-6.73-16.82-6.73-26.65l.26-80.71c0-9.48,2.2-18.15,6.6-26,4.4-7.85,10.43-14.14,18.11-18.88,7.67-4.74,16.25-7.11,25.74-7.11s18.02,2.33,25.61,6.98c7.59,4.66,13.62,10.91,18.11,18.76,4.48,7.85,6.73,16.6,6.73,26.26v11.9c0,.69-.35,1.03-1.04,1.03h-28.97c-.69,0-1.03-.34-1.03-1.03v-11.9c0-5.69-1.86-10.61-5.56-14.75-3.71-4.14-8.32-6.21-13.84-6.21-6.21,0-10.95,2.11-14.23,6.34-3.28,4.23-4.92,9.1-4.92,14.62v80.71c0,6.38,1.85,11.56,5.56,15.52,3.71,3.97,8.23,5.95,13.58,5.95s10.13-2.2,13.84-6.6c3.71-4.4,5.56-9.35,5.56-14.88v-11.9c0-.69.34-1.03,1.03-1.03h29.23c.69,0,1.03.35,1.03,1.03v11.9c0,9.83-2.29,18.72-6.86,26.65-4.57,7.93-10.65,14.27-18.24,19.01-7.59,4.74-16.13,7.11-25.61,7.11Z" fill="#1d1d1b"></path><path d="M262.38,28.1c-.87,0-1.29-.1-1.29-.29l.26-24.73c0-.15.34-.23,1.04-.23h28.97c.69,0,1.03.08,1.03.23l.26,24.73c0,.19-.35.29-1.04.29h-29.23Z" fill="#1d71b8"></path></svg><style>@media (prefers-color-scheme: light) { :root { filter: none; } }
@media (prefers-color-scheme: dark) { :root { filter: invert(100%); } }
</style></svg>